Coordinates
version=1
nRows=14
nColumns=40
inDegrees=yes

Units are S.I. units (second, meters, Newtons, ...)
Angles are in degrees.

endheader
time	pelvis_tilt	pelvis_list	pelvis_rotation	pelvis_tx	pelvis_ty	pelvis_tz	hip_flexion_r	hip_adduction_r	hip_rotation_r	knee_angle_r	knee_angle_r_beta	ankle_angle_r	subtalar_angle_r	mtp_angle_r	hip_flexion_l	hip_adduction_l	hip_rotation_l	knee_angle_l	knee_angle_l_beta	ankle_angle_l	subtalar_angle_l	mtp_angle_l	lumbar_extension	lumbar_bending	lumbar_rotation	arm_flex_r	arm_add_r	arm_rot_r	elbow_flex_r	pro_sup_r	wrist_flex_r	wrist_dev_r	arm_flex_l	arm_add_l	arm_rot_l	elbow_flex_l	pro_sup_l	wrist_flex_l	wrist_dev_l
      0.00000000	     -0.95607579	     -8.16368587	      1.45915397	     -1.06468281	      0.88397822	      0.99691216	     21.21306918	      5.93255989	    -12.74438209	    -25.55590887	     -0.44603475	      0.71743036	     -3.50210025	      3.34633327	     -1.08379161	      9.02270987	      5.33913283	    -49.27211987	     -0.85996072	    -24.69951253	     -1.93972145	    -13.44332164	     -6.12056855	     11.28342282	     -2.77655149	     -3.14980783	     -9.79890779	     16.90228017	      9.03973150	     89.95437384	      0.00000000	      0.00000000	      6.85334446	      9.10784190	    -14.49502003	     49.52745494	     89.95437384	      0.00000000	      0.00000000
      0.01000000	     -0.93399371	     -8.40830592	      1.75236663	     -1.05112504	      0.88539335	      0.99797579	     19.81230384	      6.21590368	    -13.35122601	    -24.92576273	     -0.43503663	      1.69971320	     -2.52791363	      3.04393194	      1.12209428	      9.57143319	      5.02442294	    -52.35712995	     -0.91380430	    -22.60731517	     -1.47346447	    -13.50304428	     -6.11168509	     11.56138593	     -2.49154352	     -2.73434145	    -10.07079543	     16.83545825	      9.80939733	     89.95437384	      0.00000000	      0.00000000	      6.58222699	      8.98523852	    -14.92434013	     48.16891973	     89.95437384	      0.00000000	      0.00000000
      0.02000000	     -0.94565000	     -8.51559372	      1.97874508	     -1.03782233	      0.88671865	      0.99902607	     18.51016965	      6.36636926	    -13.91401090	    -24.37342240	     -0.42539647	      2.60700229	     -1.57682403	      2.69875266	      3.36068413	      9.88028622	      4.84300337	    -55.09417121	     -0.96157469	    -19.40177592	     -0.78380777	    -13.51765872	     -6.12465303	     11.66851160	     -2.12000735	     -2.21998351	    -10.33572849	     16.84150310	     10.53527553	     89.95437384	      0.00000000	      0.00000000	      6.35548458	      8.78785025	    -15.18192009	     46.68166003	     89.95437384	      0.00000000	      0.00000000
      0.03000000	     -0.80391542	     -8.49673563	      2.20290802	     -1.02443755	      0.88820060	      0.99988305	     17.05989667	      6.39706670	    -14.30687352	    -23.88623200	     -0.41689339	      3.38120547	     -0.68935844	      2.35068350	      5.41439936	     10.01114228	      4.76596478	    -57.35635524	     -1.00105725	    -16.67566888	      0.02341555	    -13.42719060	     -6.29569700	     11.62148850	     -1.71337400	     -1.69853575	    -10.61738425	     16.93883714	     11.27467491	     89.95437384	      0.00000000	      0.00000000	      6.19584140	      8.61211183	    -15.49553204	     45.02099248	     89.95437384	      0.00000000	      0.00000000
      0.04000000	     -0.54863326	     -8.38831282	      2.29337710	     -1.01102073	      0.88987713	      1.00105415	     15.47603207	      6.44222659	    -14.48160784	    -23.35433502	     -0.40761004	      4.17507915	     -0.02744539	      2.05101108	      7.23573952	      9.99630897	      4.74826241	    -59.03444580	     -1.03034545	    -14.45178634	      0.54674325	    -13.38848787	     -6.64916186	     11.42865823	     -1.19366150	     -1.01337208	    -10.82026263	     17.06159851	     11.85087201	     89.95437384	      0.00000000	      0.00000000	      6.10365043	      8.46641835	    -15.74120584	     43.17497543	     89.95437384	      0.00000000	      0.00000000
      0.05000000	     -0.22223527	     -8.27683995	      2.41167308	     -0.99749795	      0.89154330	      1.00194905	     13.73190476	      6.43563699	    -14.88511719	    -22.67531039	     -0.39575883	      4.81338202	      0.96706164	      1.58871832	      8.94420006	      9.85589844	      4.61246662	    -60.31072713	     -1.05262076	    -12.11809061	      1.34348296	    -13.26812012	     -7.09551754	     11.24668964	     -0.69522016	     -0.39058658	    -11.14496632	     17.36142134	     12.69133062	     89.95437384	      0.00000000	      0.00000000	      5.88960926	      8.38881442	    -16.11000321	     41.56609025	     89.95437384	      0.00000000	      0.00000000
      0.06000000	      0.15264683	     -7.98914350	      2.28933617	     -0.98361884	      0.89327482	      1.00307041	     11.89095628	      6.33855887	    -14.86423647	    -21.99069505	     -0.38381003	      5.53085068	      1.74462360	      1.18720534	     10.32891818	      9.56599494	      4.82144037	    -60.97274931	     -1.06417523	     -9.90031767	      1.46626378	    -13.35458207	     -7.55812714	     10.83265360	     -0.03229342	      0.35491645	    -11.38024998	     17.63274961	     13.22089698	     89.95437384	      0.00000000	      0.00000000	      5.65985105	      8.21399859	    -16.17699203	     39.67034058	     89.95437384	      0.00000000	      0.00000000
      0.07000000	      0.77927829	     -7.58434324	      2.23469712	     -0.96970152	      0.89536048	      1.00393365	      9.68889214	      6.02540794	    -15.28827864	    -21.14534756	     -0.36905594	      6.09648720	      3.14227140	      0.19896477	     11.28034301	      9.06989737	      4.99257356	    -61.04495483	     -1.06543545	     -7.57297129	      1.89146132	    -13.60896797	     -8.32707252	     10.30182618	      0.56912061	      1.19952681	    -11.67003136	     18.37767751	     13.73325637	     89.95437384	      0.00000000	      0.00000000	      5.43123304	      8.11116280	    -16.24932725	     37.84381163	     89.95437384	      0.00000000	      0.00000000
      0.08000000	      0.81895368	     -7.26965974	      2.08687705	     -0.95650451	      0.89632369	      1.00510079	      8.32727394	      5.90125704	    -15.17326845	    -20.52715512	     -0.35826644	      6.71721399	      3.46900668	     -0.04438411	     13.02157734	      8.72485616	      5.25472055	    -61.04194272	     -1.06538288	     -5.25339611	      1.59645125	    -13.78987042	     -8.46476465	      9.82669243	      1.07891906	      2.14691253	    -11.81958438	     18.46525595	     14.07500946	     89.95437384	      0.00000000	      0.00000000	      5.13206035	      8.02478490	    -16.17580931	     35.93491468	     89.95437384	      0.00000000	      0.00000000
      0.09000000	      0.96563493	     -6.97349596	      1.98317046	     -0.94336352	      0.89723178	      1.00638753	      6.84607607	      5.82501175	    -14.97848264	    -19.86054298	     -0.34663187	      7.25548111	      3.75898035	     -0.32646756	     14.58077941	      8.44087206	      5.54337523	    -60.70714778	     -1.05953961	     -2.73122225	      1.77290887	    -14.01165145	     -8.74208722	      9.33758353	      1.56656098	      3.08387254	    -11.97486940	     18.55141652	     14.54797211	     89.95437384	      0.00000000	      0.00000000	      4.77375862	      8.01843052	    -16.00923210	     34.20364693	     89.95437384	      0.00000000	      0.00000000
      0.10000000	      1.12267788	     -6.53303830	      1.60249766	     -0.92949173	      0.89806580	      1.00764544	      5.32468038	      5.56035501	    -14.57070849	    -19.25605606	     -0.33608158	      7.85407844	      4.11690882	     -0.58938209	     15.80821887	      8.01297117	      6.15693860	    -59.78931078	     -1.04352033	     -0.81020239	      2.00777473	    -14.13923037	     -8.94725562	      8.69912628	      2.21845192	      3.99107929	    -12.15378564	     18.68092338	     14.94463323	     89.95437384	      0.00000000	      0.00000000	      4.35087515	      7.98273296	    -15.80265698	     32.31771122	     89.95437384	      0.00000000	      0.00000000
      0.11000000	      1.06087549	     -6.24931896	      1.47833172	     -0.91617073	      0.89812011	      1.00892372	      4.21102937	      5.39972466	    -14.69994143	    -18.88207669	     -0.32955441	      8.30970040	      4.09407012	     -0.71230915	     17.45865154	      7.84255414	      6.68465857	    -58.75801012	     -1.02552074	      0.11887105	      2.15282074	    -14.02755157	     -8.92461936	      8.20592658	      2.49108994	      4.92343984	    -12.27822000	     18.68886533	     15.48087100	     89.95437384	      0.00000000	      0.00000000	      3.68837893	      8.20456666	    -15.72267751	     30.96477198	     89.95437384	      0.00000000	      0.00000000
      0.12000000	      1.75371232	     -5.74274146	      1.31666056	     -0.90270454	      0.89936240	      1.00969188	      2.04105354	      5.03196818	    -14.37382820	    -18.05881632	     -0.31518580	      8.79262887	      4.76766580	     -1.45710784	     17.89368872	      7.19419564	      7.08877704	    -57.01087153	     -0.99502742	      1.70603270	      3.45023115	    -14.35382919	     -9.84023598	      7.51350105	      2.93975812	      5.85929517	    -12.58875294	     18.88727623	     16.34552423	     89.95437384	      0.00000000	      0.00000000	      3.36059365	      8.11662453	    -14.84070376	     29.20553853	     89.95437384	      0.00000000	      0.00000000
      0.13000000	      1.59135824	     -5.50176045	      1.24622804	     -0.88972074	      0.89878823	      1.01057208	      1.09587535	      4.90100052	    -14.32372709	    -17.73463249	     -0.30952773	      9.43371114	      4.80509813	     -1.65765437	     19.54703715	      6.95596990	      7.44358357	    -55.48708024	     -0.96843224	      2.50942933	      3.53661364	    -14.24638841	     -9.73379712	      7.10413316	      3.14909213	      6.80165702	    -12.77600174	     18.81144635	     16.90020619	     89.95437384	      0.00000000	      0.00000000	      2.83029872	      8.27376149	    -14.72138852	     27.64889982	     89.95437384	      0.00000000	      0.00000000
